<?xml version="1.0" encoding="utf-8"?>
<!-- Generator: Adobe Illustrator 23.0.2, SVG Export Plug-In . SVG Version: 6.00 Build 0)  -->
<svg version="1.1" id="konsonans_x5F_white" xmlns="http://www.w3.org/2000/svg" xmlns:xlink="http://www.w3.org/1999/xlink"
	 x="0px" y="0px" viewBox="0 0 367.3 96.2" style="enable-background:new 0 0 367.3 96.2;" xml:space="preserve">
<style type="text/css">
	.st0{enable-background:new    ;}
	.st1{fill:#FFFFFF;}
	.st2{fill-rule:evenodd;clip-rule:evenodd;fill:#FFFFFF;}
	.st3{fill:#FFFFFF;enable-background:new    ;}
</style>
<g id="ОНСОНАНС_1_" class="st0">
	<path class="st1" d="M67.6,17.4C67.6,6.3,73.4,0,84.1,0c10.7,0,16.5,6.3,16.5,17.4v36c0,11.1-5.8,17.4-16.5,17.4
		c-10.7,0-16.5-6.3-16.5-17.4V17.4z M78.4,54.1c0,4.9,2.2,6.8,5.6,6.8c3.5,0,5.6-1.9,5.6-6.8V16.7c0-4.9-2.2-6.8-5.6-6.8
		c-3.5,0-5.6,1.9-5.6,6.8V54.1z"/>
	<path class="st1" d="M116.2,70h-10.9V0.8h10.9v29.6h12.4V0.8h11.1V70h-11.1V40.3h-12.4V70z"/>
	<path class="st1" d="M176.8,44.2v9.2c0,11.1-5.5,17.4-16.2,17.4s-16.2-6.3-16.2-17.4v-36c0-11.1,5.5-17.4,16.2-17.4
		s16.2,6.3,16.2,17.4v6.7h-10.3v-7.4c0-4.9-2.2-6.8-5.6-6.8c-3.5,0-5.6,1.9-5.6,6.8v37.4c0,4.9,2.2,6.7,5.6,6.7
		c3.5,0,5.6-1.8,5.6-6.7v-9.9H176.8z"/>
	<path class="st1" d="M180.2,17.4c0-11.1,5.8-17.4,16.5-17.4s16.5,6.3,16.5,17.4v36c0,11.1-5.8,17.4-16.5,17.4s-16.5-6.3-16.5-17.4
		V17.4z M191.1,54.1c0,4.9,2.2,6.8,5.6,6.8s5.6-1.9,5.6-6.8V16.7c0-4.9-2.2-6.8-5.6-6.8s-5.6,1.9-5.6,6.8V54.1z"/>
	<path class="st1" d="M228.8,70H218V0.8h10.9v29.6h12.4V0.8h11.1V70h-11.1V40.3h-12.4V70z"/>
	<path class="st1" d="M293.1,70h-11l-1.9-12.6h-13.3L265,70h-10l11.1-69.2H282L293.1,70z M268.3,48h10.5l-5.2-35L268.3,48z"/>
	<path class="st1" d="M306.7,70h-10.9V0.8h10.9v29.6h12.4V0.8h11.1V70h-11.1V40.3h-12.4V70z"/>
	<path class="st1" d="M367.3,44.2v9.2c0,11.1-5.5,17.4-16.2,17.4s-16.2-6.3-16.2-17.4v-36c0-11.1,5.5-17.4,16.2-17.4
		s16.2,6.3,16.2,17.4v6.7H357v-7.4c0-4.9-2.2-6.8-5.6-6.8s-5.6,1.9-5.6,6.8v37.4c0,4.9,2.2,6.7,5.6,6.7s5.6-1.8,5.6-6.7v-9.9H367.3z
		"/>
</g>
<path class="st2" d="M35.2,0L29,13v14L41,0H35.2z"/>
<path class="st2" d="M41,94L30,65l-1,2v12l6,15H41z"/>
<rect y="0" class="st1" width="8" height="94"/>
<g id="рекламное_производство_1_" class="st0">
	<path class="st1" d="M76.6,81.9V84c0,2.6-1.2,4-3.8,4h-1.2V94h-2.5V77.9h3.7C75.4,77.9,76.6,79.3,76.6,81.9z M71.6,80.2v5.5h1.2
		c0.8,0,1.2-0.4,1.2-1.5v-2.4c0-1.2-0.4-1.5-1.2-1.5H71.6z"/>
	<path class="st1" d="M84.9,84.7h3.5V87h-3.5v4.7h4.4V94h-6.9V77.9h6.9v2.3h-4.4V84.7z"/>
	<path class="st1" d="M98.8,87.6L98,89.1v5h-2.5V77.9H98v7l3.3-7h2.5l-3.5,7.2l3.5,8.9h-2.6L98.8,87.6z"/>
	<path class="st1" d="M108.9,91.7c1.2,0,1.5-0.2,1.6-1.7l0.4-12.2h7.2V94h-2.6V80.2h-2.2l-0.3,9.8c-0.1,3-1.2,4.1-3.7,4.1h-0.4V91.7
		z"/>
	<path class="st1" d="M132.8,94h-2.6l-0.4-2.9h-3.1l-0.4,2.9H124l2.6-16.1h3.7L132.8,94z M127,88.9h2.4l-1.2-8.2L127,88.9z"/>
	<path class="st1" d="M144,89.3l1.7-11.5h3.5V94h-2.4V82.4L145.1,94h-2.4l-1.9-11.4V94h-2.2V77.9h3.5L144,89.3z"/>
	<path class="st1" d="M158.2,94h-2.5V77.9h2.5v6.9h2.9v-6.9h2.6V94h-2.6v-6.9h-2.9V94z"/>
	<path class="st1" d="M169.9,81.8c0-2.6,1.4-4.1,3.9-4.1c2.5,0,3.9,1.5,3.9,4.1v8.4c0,2.6-1.4,4.1-3.9,4.1c-2.5,0-3.9-1.5-3.9-4.1
		V81.8z M172.5,90.3c0,1.2,0.5,1.6,1.3,1.6c0.8,0,1.3-0.4,1.3-1.6v-8.7c0-1.2-0.5-1.6-1.3-1.6c-0.8,0-1.3,0.4-1.3,1.6V90.3z"/>
	<path class="st1" d="M186.4,84.7h3.5V87h-3.5v4.7h4.4V94h-6.9V77.9h6.9v2.3h-4.4V84.7z"/>
	<path class="st1" d="M207.7,94h-2.5V77.9h8V94h-2.6V80.2h-2.9V94z"/>
	<path class="st1" d="M227.1,81.9V84c0,2.6-1.2,4-3.8,4h-1.2V94h-2.5V77.9h3.7C225.9,77.9,227.1,79.3,227.1,81.9z M222.2,80.2v5.5
		h1.2c0.8,0,1.2-0.4,1.2-1.5v-2.4c0-1.2-0.4-1.5-1.2-1.5H222.2z"/>
	<path class="st1" d="M232.7,81.8c0-2.6,1.4-4.1,3.9-4.1s3.9,1.5,3.9,4.1v8.4c0,2.6-1.4,4.1-3.9,4.1s-3.9-1.5-3.9-4.1V81.8z
		 M235.2,90.3c0,1.2,0.5,1.6,1.3,1.6s1.3-0.4,1.3-1.6v-8.7c0-1.2-0.5-1.6-1.3-1.6s-1.3,0.4-1.3,1.6V90.3z"/>
	<path class="st1" d="M249.3,94h-2.6V77.9h2.3v10.2l0.9-3.6l2.1-6.7h2.8V94h-2.3V82.7l-1,4L249.3,94z"/>
	<path class="st1" d="M266,81.8c0-1.5-0.5-1.8-1.3-1.8s-1.3,0.4-1.3,1.6v1.3H261v-1.2c0-2.6,1.2-4,3.7-4s3.8,1.5,3.8,4.1v0.4
		c0,1.7-0.6,2.8-1.8,3.3c1.3,0.6,1.8,1.8,1.8,3.4v1.3c0,2.6-1.3,4.1-3.8,4.1s-3.8-1.5-3.8-4.1v-1.8h2.4v1.9c0,1.2,0.5,1.6,1.3,1.6
		s1.3-0.4,1.3-1.8v-1.3c0-1.5-0.5-2.1-1.7-2.1h-0.6v-2.3h0.8c0.9,0,1.5-0.4,1.5-1.7V81.8z"/>
	<path class="st1" d="M282.4,81.6v0.6c0,1.7-0.5,2.7-1.6,3.3c1.4,0.5,1.9,1.8,1.9,3.5v1.3c0,2.5-1.3,3.8-3.8,3.8h-4V77.9h3.8
		C281.3,77.9,282.4,79.1,282.4,81.6z M277.4,80.2v4.3h1c0.9,0,1.5-0.4,1.5-1.7v-0.9c0-1.2-0.4-1.7-1.3-1.7H277.4z M277.4,86.8v5h1.5
		c0.9,0,1.3-0.4,1.3-1.6v-1.4c0-1.5-0.5-2-1.6-2H277.4z"/>
	<path class="st1" d="M288.6,81.8c0-2.6,1.4-4.1,3.9-4.1s3.9,1.5,3.9,4.1v8.4c0,2.6-1.4,4.1-3.9,4.1s-3.9-1.5-3.9-4.1V81.8z
		 M291.1,90.3c0,1.2,0.5,1.6,1.3,1.6s1.3-0.4,1.3-1.6v-8.7c0-1.2-0.5-1.6-1.3-1.6s-1.3,0.4-1.3,1.6V90.3z"/>
	<path class="st1" d="M309.9,96.2V94h-5.4v2.2H302v-4.4h1c0.4-0.6,0.6-1.2,0.6-2.1l0.6-11.8h7.1v13.9h1.1v4.4H309.9z M306.1,89.6
		c-0.1,1.2-0.3,1.8-0.7,2.1h3.3V80.2h-2.1L306.1,89.6z"/>
	<path class="st1" d="M325.8,88v2.1c0,2.6-1.3,4.1-3.8,4.1s-3.8-1.5-3.8-4.1v-8.4c0-2.6,1.3-4.1,3.8-4.1s3.8,1.5,3.8,4.1v1.6h-2.4
		v-1.7c0-1.2-0.5-1.6-1.3-1.6s-1.3,0.4-1.3,1.6v8.7c0,1.2,0.5,1.6,1.3,1.6s1.3-0.4,1.3-1.6V88H325.8z"/>
	<path class="st1" d="M331.2,77.9h7.8v2.3h-2.7V94h-2.5V80.2h-2.7V77.9z"/>
	<path class="st1" d="M352.3,81.6v0.6c0,1.7-0.5,2.7-1.6,3.3c1.4,0.5,1.9,1.8,1.9,3.5v1.3c0,2.5-1.3,3.8-3.9,3.8h-4V77.9h3.8
		C351.2,77.9,352.3,79.1,352.3,81.6z M347.3,80.2v4.3h1c0.9,0,1.5-0.4,1.5-1.7v-0.9c0-1.2-0.4-1.7-1.3-1.7H347.3z M347.3,86.8v5h1.5
		c0.9,0,1.3-0.4,1.3-1.6v-1.4c0-1.5-0.5-2-1.6-2H347.3z"/>
	<path class="st1" d="M358.5,81.8c0-2.6,1.4-4.1,3.9-4.1s3.9,1.5,3.9,4.1v8.4c0,2.6-1.4,4.1-3.9,4.1s-3.9-1.5-3.9-4.1V81.8z
		 M361,90.3c0,1.2,0.5,1.6,1.3,1.6s1.3-0.4,1.3-1.6v-8.7c0-1.2-0.5-1.6-1.3-1.6s-1.3,0.4-1.3,1.6V90.3z"/>
</g>
<polygon class="st3" points="11.5,0 11.5,94 25.5,94 25.5,64.3 29.9,56.3 44.8,94 59.5,94 38.5,42.4 59.5,0 44.7,0 25.5,41.3 
	25.5,0 "/>
</svg>
